<?xml version="1.0" standalone="no"?>
<!DOCTYPE svg PUBLIC "-//W3C//DTD SVG 20010904//EN"
 "http://www.w3.org/TR/2001/REC-SVG-20010904/DTD/svg10.dtd">
<svg version="1.0" xmlns="http://www.w3.org/2000/svg"
 width="744.000000pt" height="1052.000000pt" viewBox="0 0 744.000000 1052.000000"
 preserveAspectRatio="xMidYMid meet">

<g transform="translate(0.000000,1052.000000) scale(0.100000,-0.100000)"
fill="#000000" stroke="none">
<path d="M5112 8379 c-426 -36 -816 -234 -1098 -557 -79 -91 -206 -273 -264
-379 l-34 -61 -61 103 c-179 301 -397 523 -660 674 -359 205 -857 272 -1320
176 -749 -156 -1251 -708 -1381 -1520 -26 -162 -24 -428 6 -605 158 -956 920
-1970 2490 -3316 358 -307 907 -754 926 -754 29 0 707 536 1039 820 325 279
470 413 790 734 386 387 562 585 808 911 545 722 809 1369 809 1980 0 799
-457 1435 -1210 1685 -263 87 -592 130 -840 109z m-2558 -1641 c12 -18 28
-240 76 -1018 33 -547 64 -1015 67 -1040 6 -43 7 -40 16 40 12 119 21 133 82
142 28 3 88 7 134 7 l83 1 50 44 c58 53 139 86 211 86 65 0 157 -42 206 -94
l35 -36 105 1 c59 0 128 4 154 7 l48 7 56 135 c31 74 60 141 66 148 5 6 25 12
44 12 32 0 36 -4 57 -52 13 -29 38 -97 55 -150 29 -87 35 -98 56 -98 20 0 24
6 29 48 3 26 31 416 61 867 31 451 58 834 61 852 6 41 28 63 63 63 59 0 49 88
126 -1190 26 -426 49 -786 52 -800 7 -28 9 -21 18 63 10 86 12 87 182 87 l145
0 47 39 c75 63 127 84 201 85 79 1 139 -24 204 -84 l45 -42 283 4 c276 3 284
4 312 26 100 78 224 -54 137 -147 -23 -24 -37 -31 -68 -31 -22 0 -48 7 -59 15
-16 12 -73 14 -338 15 l-318 0 -59 55 c-103 94 -163 94 -277 -5 l-69 -59 -126
6 c-120 6 -127 5 -127 -13 1 -69 -84 -924 -93 -944 -14 -30 -66 -39 -89 -16
-21 20 -20 12 -80 998 -29 482 -54 875 -56 874 -1 -2 -18 -223 -38 -492 -19
-269 -37 -499 -39 -512 -7 -31 -47 -49 -80 -34 -18 9 -29 28 -46 82 -15 52
-25 70 -38 70 -49 0 -80 22 -97 68 -10 26 -24 63 -31 82 l-14 35 -33 -78 c-49
-118 -34 -111 -271 -115 l-204 -4 -53 50 c-116 108 -184 109 -300 5 l-55 -50
-108 -7 c-60 -4 -111 -9 -114 -11 -2 -3 -24 -213 -48 -467 -31 -318 -49 -470
-59 -485 -17 -27 -64 -31 -87 -9 -20 21 -20 20 -79 978 -29 477 -54 865 -56
863 -2 -2 -12 -145 -23 -317 -24 -415 -38 -627 -45 -659 -3 -16 -16 -31 -31
-38 -39 -18 -72 11 -96 82 -17 53 -21 57 -50 57 -59 0 -78 19 -105 98 -13 39
-27 70 -32 67 -5 -3 -18 -34 -30 -69 -12 -36 -28 -70 -37 -78 -13 -10 -98 -13
-410 -13 -379 0 -395 1 -409 19 -19 26 -18 55 3 78 14 16 33 18 153 18 75 0
238 3 361 7 l225 6 49 143 c26 79 53 148 59 154 5 5 25 10 43 10 41 0 47 -12
103 -187 32 -102 45 -133 58 -133 43 1 43 2 68 431 70 1233 84 1433 101 1451
23 26 69 23 87 -4z"/>
</g>
</svg>
